<?xml version="1.0" encoding="UTF-8" standalone="no" ?>
<!DOCTYPE svg PUBLIC "-//W3C//DTD SVG 1.1//EN" "http://www.w3.org/Graphics/SVG/1.1/DTD/svg11.dtd">
<svg xmlns="http://www.w3.org/2000/svg" xmlns:xlink="http://www.w3.org/1999/xlink" version="1.1" width="1280" height="1024" viewBox="0 0 1280 1024" xml:space="preserve">
<desc>Created with Fabric.js 5.3.0</desc>
<defs>
</defs>
<g transform="matrix(1 0 0 1 640 512)" id="background-logo"  >
<rect style="stroke: none; stroke-width: 0; stroke-dasharray: none; stroke-linecap: butt; stroke-dashoffset: 0; stroke-linejoin: miter; stroke-miterlimit: 4; fill: rgb(255,255,255); fill-opacity: 0; fill-rule: nonzero; opacity: 1;"  paint-order="stroke"  x="-640" y="-512" rx="0" ry="0" width="1280" height="1024" />
</g>
<g transform="matrix(1.9211538461538462 0 0 1.9211538461538462 634.6745615384615 523.7070888846154)" id="text-logo"  >
<g style=""  paint-order="stroke"   >
		<g transform="matrix(1 0 0 1 0 0)" id="text-logo-path-0"  >
<filter id="SVGID_34407" y="-25.550159567087555%" height="151.1003191341751%" x="-21.97667523225934%" width="143.95335046451868%" >
	<feGaussianBlur in="SourceAlpha" stdDeviation="0"></feGaussianBlur>
	<feOffset dx="4" dy="4" result="oBlur" ></feOffset>
	<feFlood flood-color="rgb(38,29,91)" flood-opacity="1"/>
	<feComposite in2="oBlur" operator="in" />
	<feMerge>
		<feMergeNode></feMergeNode>
		<feMergeNode in="SourceGraphic"></feMergeNode>
	</feMerge>
</filter>
<path style="stroke: rgb(84,14,49); stroke-width: 5; stroke-dasharray: none; stroke-linecap: butt; stroke-dashoffset: 0; stroke-linejoin: miter; stroke-miterlimit: 4; fill: rgb(247,207,227); fill-rule: nonzero; opacity: 1;filter: url(#SVGID_34407);"  paint-order="stroke"  transform=" translate(-97.33, 18.095)" d="M 22.48 -9.09 L 33.65 -41.73 Q 34.19 -43.35 34.19 -45.01 Q 34.19 -46.66 32.88 -47.93 Q 31.57 -49.2 30.61 -49.2 Q 29.64 -49.2 29.64 -48.59 Q 29.64 -47.97 30.26 -47.74 L 30.26 -47.74 Q 32.65 -46.82 32.65 -44.2 L 32.65 -44.2 Q 32.65 -42.5 31.42 -41.31 Q 30.18 -40.12 28.03 -40.12 Q 25.87 -40.12 24.56 -41.66 Q 23.25 -43.2 23.25 -45.35 Q 23.25 -47.51 24.95 -49.16 Q 26.64 -50.82 29.41 -50.82 Q 32.19 -50.82 33.92 -48.97 Q 35.65 -47.12 35.65 -45.08 Q 35.65 -43.04 35.11 -41.58 L 35.11 -41.58 L 21.95 -3.16 Q 21.41 -1.46 20.94 -0.62 L 20.94 -0.62 Q 19.87 1.54 17.4 1.54 L 17.4 1.54 L 17.17 1.54 L 1.62 -48.82 L -3.85 -48.82 L -3.85 -50.05 L 16.17 -50.05 L 16.17 -48.82 L 10.47 -48.82 L 22.02 -9.09 L 22.48 -9.09 Z M 70.84 -3.85 Q 66.37 1.54 58.37 1.54 Q 50.36 1.54 45.89 -3.85 Q 41.43 -9.24 41.43 -17.71 Q 41.43 -26.18 45.89 -31.57 Q 50.36 -36.96 58.37 -36.96 Q 66.37 -36.96 70.84 -31.57 Q 75.31 -26.18 75.31 -17.71 Q 75.31 -9.24 70.84 -3.85 Z M 67.68 -12.55 Q 67.84 -14.78 67.84 -17.71 Q 67.84 -20.64 67.68 -22.87 Q 67.53 -25.1 66.95 -27.64 Q 66.37 -30.18 65.41 -31.84 Q 64.45 -33.49 62.64 -34.57 Q 60.83 -35.65 58.37 -35.65 Q 55.9 -35.65 54.09 -34.57 Q 52.28 -33.49 51.32 -31.84 Q 50.36 -30.18 49.78 -27.64 Q 49.2 -25.1 49.05 -22.87 Q 48.89 -20.64 48.89 -17.71 Q 48.89 -14.78 49.05 -12.55 Q 49.2 -10.32 49.78 -7.78 Q 50.36 -5.24 51.32 -3.58 Q 52.28 -1.93 54.09 -0.85 Q 55.9 0.23 58.37 0.23 Q 60.83 0.23 62.64 -0.85 Q 64.45 -1.93 65.41 -3.58 Q 66.37 -5.24 66.95 -7.78 Q 67.53 -10.32 67.68 -12.55 Z M 125.2 -1.93 L 125.2 -1.93 Q 129.05 -1.93 132.36 -9.24 Q 135.67 -16.55 135.67 -24.64 L 135.67 -24.64 Q 135.67 -35.73 129.67 -35.73 L 129.67 -35.73 Q 128.9 -35.73 128.9 -35.11 Q 128.9 -34.5 129.59 -34.34 L 129.59 -34.34 Q 131.67 -33.96 131.67 -31.26 L 131.67 -31.26 Q 131.59 -29.64 130.48 -28.64 Q 129.36 -27.64 127.55 -27.64 Q 125.74 -27.64 124.55 -28.88 Q 123.35 -30.11 123.35 -32.11 Q 123.35 -34.11 124.97 -35.54 Q 126.59 -36.96 128.9 -36.96 L 128.9 -36.96 Q 137.06 -36.96 137.06 -24.95 L 137.06 -24.95 Q 137.06 -15.09 132.75 -6.78 Q 128.44 1.54 122.58 1.54 L 122.58 1.54 Q 115.12 1.54 111.19 -9.7 L 111.19 -9.7 Q 109.11 -4.62 106.11 -1.54 Q 103.1 1.54 99.72 1.54 L 99.72 1.54 Q 93.17 1.54 89.36 -7.08 Q 85.55 -15.71 85.55 -29.95 L 85.55 -29.95 L 85.55 -34.27 L 80.08 -34.27 L 80.08 -35.42 L 81.7 -35.42 Q 87.78 -35.42 92.55 -36.42 L 92.55 -36.42 L 92.55 -31.72 Q 92.55 -20.87 94.63 -12.09 L 94.63 -12.09 Q 95.71 -7.55 97.71 -4.74 Q 99.72 -1.93 102.14 -1.93 Q 104.57 -1.93 106.76 -4.66 Q 108.95 -7.39 110.5 -11.78 L 110.5 -11.78 Q 108.42 -19.33 108.42 -29.95 L 108.42 -29.95 L 108.42 -34.27 L 102.95 -34.27 L 102.95 -35.42 L 104.57 -35.42 Q 110.65 -35.42 115.42 -36.42 L 115.42 -36.42 L 115.42 -31.72 Q 115.42 -20.87 117.5 -12.09 L 117.5 -12.09 Q 118.58 -7.55 120.58 -4.74 Q 122.58 -1.93 125.2 -1.93 Z M 155.93 -54.13 L 155.93 -1.16 L 161.01 -1.16 L 161.01 0 L 143.99 0 L 143.99 -1.16 L 149.07 -1.16 L 149.07 -51.98 L 143.6 -51.98 L 143.6 -53.13 L 145.22 -53.13 Q 151.23 -53.13 155.93 -54.13 L 155.93 -54.13 Z M 183.95 17.94 L 183.95 17.94 Q 180.1 17.94 177.79 15.21 Q 175.48 12.47 175.48 8.16 L 175.48 8.16 Q 175.48 1.62 182.26 -3.31 L 182.26 -3.31 L 182.18 -3.62 Q 176.95 -3.93 173.02 -10.78 Q 169.09 -17.63 169.09 -29.95 L 169.09 -29.95 L 169.09 -34.27 L 163.63 -34.27 L 163.63 -35.42 L 165.24 -35.42 Q 171.33 -35.42 176.1 -36.42 L 176.1 -36.42 L 176.1 -31.72 Q 176.1 -20.87 178.68 -14.21 Q 181.26 -7.55 186.11 -7.55 L 186.11 -7.55 Q 189.57 -7.55 193.35 -12.78 Q 197.12 -18.02 197.12 -24.64 L 197.12 -24.64 Q 197.12 -28.41 196.04 -31.3 Q 194.96 -34.19 192.65 -35.11 L 192.65 -35.11 Q 191.88 -35.5 190.88 -35.5 Q 189.88 -35.5 189.88 -34.84 Q 189.88 -34.19 190.58 -34.11 L 190.58 -34.11 Q 192.65 -33.73 192.58 -31.49 L 192.58 -31.49 Q 192.58 -27.18 188.57 -27.18 L 188.57 -27.18 Q 186.73 -27.18 185.53 -28.49 Q 184.34 -29.8 184.34 -31.92 Q 184.34 -34.03 186.03 -35.5 Q 187.73 -36.96 190.11 -36.96 L 190.11 -36.96 Q 194.43 -36.96 196.47 -33.57 Q 198.51 -30.18 198.51 -24.95 L 198.51 -24.95 Q 198.51 -12.55 188.34 -5.78 L 188.34 -5.78 Q 188.19 -5.62 186.73 -4.7 Q 185.26 -3.77 184.92 -3.5 Q 184.57 -3.23 183.26 -2.31 Q 181.95 -1.39 181.53 -0.92 Q 181.1 -0.46 180.1 0.5 Q 179.1 1.46 178.72 2.16 Q 178.33 2.85 177.79 3.85 L 177.79 3.85 Q 176.87 5.54 176.87 8.66 Q 176.87 11.78 178.79 14.13 Q 180.72 16.48 183.11 16.48 L 183.11 16.48 Q 183.88 16.48 183.88 15.86 Q 183.88 15.25 183.18 15.09 L 183.18 15.09 Q 181.18 14.63 181.18 12.01 L 181.18 12.01 Q 181.18 10.39 182.37 9.36 Q 183.57 8.32 185.3 8.32 Q 187.03 8.32 188.23 9.59 Q 189.42 10.86 189.42 12.86 Q 189.42 14.86 187.8 16.4 Q 186.19 17.94 183.95 17.94 Z" stroke-linecap="round" />
</g>
</g>
</g>
</svg>